PathFileType	4	(X/Y/Z)	/home/abdul/Desktop/myosuite/custom_workspace/IK/output/S14_12_1.trc
DataRate	CameraRate	NumFrames	NumMarkers	Units	OrigDataRate	OrigDataStartFrame	OrigNumFrames
200.0	200.0	44	3	mm	200.0	1021	2040
Frame#	Time	V_Shoulder			V_Elbow			V_Wrist		
		X1	Y1	Z1	X2	Y2	Z2	X3	Y3	Z3

1021	5.1	-167.13975049955715	693.9624880374978	306.48271000511573	-226.0382285115096	511.28308987532887	22.299468284318394	-121.21318168046813	467.411560069611	237.77467671968577
1022	5.105	-167.24361257359814	694.2539115932864	306.46212623563406	-225.98510245735105	511.21199289629055	22.548656383760143	-121.37376803591724	468.81441244292876	238.371355915334
1023	5.11	-167.34560571227146	694.5446067558588	306.4426333403235	-225.9288812998008	511.1369234388952	22.80131987093097	-121.52888326598116	470.20064598770614	238.95820469732553
1024	5.115	-167.44573124045763	694.8345430433187	306.42423874720834	-225.869696051677	511.05804025246243	23.057379014594673	-121.67848901324602	471.5701106903243	239.53531727912724
1025	5.12	-167.54399093498554	695.1236893036177	306.40694911875363	-225.80767825440202	510.97550059206054	23.31675334404272	-121.82255298059701	472.92266298145523	240.10279552172918
1026	5.125	-167.64038701714742	695.4120137542586	306.39077035006744	-225.74295987440178	510.8894600328069	23.579361773074197	-121.96104907859487	474.2581657881915	240.66074860880985
1027	5.13	-167.73492214530847	695.699484023197	306.3757075681369	-225.6756731984813	510.8000722912812	23.84512272301712	-122.09395755741389	475.5764886021479	241.20929271102517
1028	5.135	-167.8275994076273	695.9860671908622	306.36176513207846	-225.60595072818552	510.70748905410335	24.113954244650326	-122.22126512281488	476.8775075638132	241.7485506411081
1029	5.14	-167.91842231490008	696.2717298332186	306.34894663438513	-225.53392507316119	510.61185981370863	24.385774138883864	-122.34296503568063	478.16110556326475	242.27865150145092
1030	5.145	-168.0073947935425	696.5564380657846	306.33725490314964	-225.45972884354552	510.5133317113391	24.660500076054046	-122.45905719469786	479.42717235718703	242.79973032581714
1031	5.15	-168.09452117872146	696.8401575885268	306.32669200524236	-225.3834945414148	510.41204938725065	24.93804971368747	-122.56954820182855	480.675604701957	243.3119277167953
1032	5.155	-168.17980620764754	697.1228537315434	306.31725925042326	-225.30535445133813	510.3081548381252	25.218340812586256	-122.67445141027454	481.90630650238415	243.81538948056584
1033	5.16	-168.26325501303907	697.40449150145	306.3089571963629	-225.22544053009	510.2017872816631	25.50129135108441	-122.77378695470276	483.1191889755112	244.3102662605005
1034	5.165	-168.3448731167662	697.6850356283812	306.30178565455003	-225.1438842955878	510.0930830283214	25.78681963732308	-122.86758176356176	484.314170828704	244.79671317105755
1035	5.17	-168.424666423684	697.9644506135193	306.2957436970615	-225.06081671513112	509.9821753601524	26.074844419390384	-122.95586955338632	485.49117845108367	245.27488943337067
1036	5.175	-168.5026412156608	698.242700777056	306.29082966416803	-224.97636809303094	509.8691944166902	26.36528499316938	-123.03869080505245	486.6501461171812	245.74495801385808
1037	5.18	-168.5788041458081	698.519750306502	306.2870411727509	-224.8906679577293	509.75426708782555	26.65806130773616	-123.11609272201132	487.7910162015278	246.2070852671032
1038	5.185	-168.6531622329168	698.7955633052503	306.284375125504	-224.80384494852237	509.63751691360164	26.953094068148626	-123.18812917059697	488.913739402733	246.6614405841758
1039	5.19	-168.72572285610283	699.070103841299	306.28282772089307	-224.7160267020098	509.51906399086056	27.25030483546563	-123.2548606025685	490.01827497545185	247.1081960474761
1040	5.195	-168.7964937496655	699.3433359960471	306.28239446384674	-224.627339738408	509.399024886666	27.549616123835808	-123.316353960112	491.104590968499	247.5475260930969
1041	5.2	-168.8654829981593	699.6152239130647	306.2830701771521	-224.53790934787477	509.2775125584234	27.850951494495703	-123.3726825635911	492.1726644672363	247.9796071816042
1042	5.205	-168.93269903167925	699.885731846749	306.2848490135259	-224.44785947700512	509.1546362806178	28.154235646517847	-123.42392598239775	493.2224818382407	248.40461747804375
1043	5.21	-168.99815062135892	700.1548242107715	306.2877244683366	-224.3573126156692	509.030501578088	28.45939450415118	-123.47016988931455	494.2540389741547	248.82273654188558
1044	5.215	-169.0618468750795	700.4224656262276	306.29168939294806	-224.26638968437345	508.9052101657512	28.766355300599084	-123.51150589885843	495.2673415365291	249.23414502751996
1045	5.22	-169.12379723338603	700.6886209693924	306.2967360086582	-224.17520992233807	508.7788598946978	29.0750466580838	-123.54803139013114	496.2624051943927	249.63902439582466
1046	5.225	-169.1840114656069	700.9532554189991	306.3028559212059	-224.0838907764916	508.65154470456866	29.385398664050875	-123.57984931475532	497.2392558562242	250.03755663722512
1047	5.23	-169.24249966617128	701.2163345029427	306.31004013581827	-223.9925477915938	508.52335458213213	29.697342943372963	-123.60706799052437	498.1979298929617	250.42992400657687
1048	5.235	-169.2992722511184	701.477824144327	306.31827907277335	-223.90129450170622	508.3943755259753	30.0108127264193	-123.62980088144211	499.13847434965726	250.816308770106
1049	5.24	-169.35433995479033	701.7376907067624	306.3275625834494	-223.81024232323665	508.26468951722364	30.32574291286528	-123.64816636487132	500.06094714338224	251.19689296455567
1050	5.245	-169.40771382670093	701.9959010388329	306.3378799668374	-223.71950044979138	508.1343744962046	30.642070131125944	-123.66228748655038	500.96541724500065	251.57185816859965
1051	5.25	-169.45940522857074	702.2524225176467	306.34921998649025	-223.62917574907414	508.0035043449683	30.959732793307662	-123.67229170427404	501.8519648424602	251.94138528650217
1052	5.255	-169.50942583151775	702.5072230913871	306.3615708878828	-223.53937266207512	507.8721488755789	31.27867114558414	-123.67831062106626	502.72068148330266	252.30565434392688
1053	5.26	-169.55778761339295	702.7602713207858	306.3749204161598	-223.45019310479876	507.74037382408864	31.598827313915812	-123.68047970870293	503.5716701941645	252.66484429572373
1054	5.265	-169.60450285624822	703.0115364194385	306.38925583424725	-223.36173637277966	507.60824085010444	31.920145345046052	-123.67893802246658	504.4050455751269	253.01913284545685
1055	5.27	-169.64958414392402	703.2609882928887	306.404563941303	-223.27409904863896	507.4758075418569	32.24257124272297	-123.67382790803609	505.22093386688357	253.36869627637503
1056	5.275	-169.69304435974252	703.5085975764064	306.4208310914848	-223.187374912934	507.3431274266758	32.56605299911209	-123.66529470143249	506.01947298881595	253.71370929347125
1057	5.28	-169.7348966842921	703.7543356713894	306.43804321301286	-223.10165485855293	507.21024998677467	32.890540621382826	-123.65348642295447	506.8008125462114	254.05434487622904
1058	5.285	-169.77515459328743	703.9981747803208	306.456185827505	-223.01702680890446	507.0772206802435	33.2159861534705	-123.63855346604694	507.5651138050123	254.39077414161193
1059	5.29	-169.81383185548998	704.2400879402203	306.47524406956495	-222.93357564015065	506.94408096714227	33.542343693035015	-123.62064828205197	508.3125496326602	254.72316621681668
1060	5.295	-169.8509425306713	704.4800490545225	306.4952027066011	-222.85138310772538	506.810868340586	33.86956940365771	-123.59992506179333	509.0433044037844	255.05168812128346
1061	5.3	-169.88650096760287	704.7180329233294	306.51604615885753	-222.770527777378	506.67761636270234	34.197621522339404	-123.57653941494394	509.7575738696821	255.3765046574341
1062	5.305	-169.92052180205425	704.95401527198	306.53775851963724	-222.6910849609735	506.54435470533883	34.52646036238392	-123.5506480481217	510.45556499074985	255.6977783095966
1063	5.31	-169.95301995478243	705.1879727778828	306.56032357569984	-222.61312665727542	506.4111091953899	34.85604831177412	-123.52240844265012	511.1374957312422	256.0156691505658
1064	5.315	-169.98401062949281	705.4198830955711	306.5837248278142	-222.53672149792615	506.2779018646038	35.18634982716964	-123.49197853290877	511.8035948159637	256.33033475525025
